<svg xmlns="http://www.w3.org/2000/svg" style="border: 0 !important; clip: rect(0 0 0 0) !important; height: 1px !important; margin: -1px !important; overflow: hidden !important; padding: 0 !important; position: absolute !important; width: 1px !important;" class="root-svg-symbols-element">
    <symbol id="plane" viewBox="0 0 28 30">
      <path fill="#fff" d="M14.4 12.8l-6.23 6.56-5.71-.33-2.08 2.5 5.64 1.5s.25-.34-1 1.04c-1.16 1.3-.18 1.6.8.74.97-.85.99-1.04.99-1.04l2.42 5.34 1.97-3.13-1.29-4.25 6.58-6.94 6.07 13.4 1.86-1.62L22.1 8.71s4.72-5.33 5.26-6.6c.54-1.27.37-2.14-1.31-1.24-1.69.9-6.49 5.78-6.49 5.78L3.24 6.13.4 8.43z"/>
    </symbol>
    <symbol id="search" viewBox="0 0 19 19">
      <path d="M13.65 7.29c0-3.53-2.86-6.4-6.38-6.4S.89 3.76.89 7.29c0 3.53 2.86 6.4 6.38 6.4s6.38-2.87 6.38-6.4zm-6.43 4.3c-2.36 0-4.28-1.92-4.28-4.3s1.92-4.3 4.28-4.3c2.37 0 4.29 1.92 4.29 4.3s-1.92 4.3-4.29 4.3zm10.51 3.52l-3.82-3.83c-.54-.54-.35.18-.84.68l-.81.81c-.49.49-1.58.48-.95 1.12l3.82 3.83c.49.5 1.3.5 1.8 0l.8-.81c.49-.49.49-1.3 0-1.8z" fill="#B7B7B7" opacity=".6"/>
    </symbol>
    <symbol id="time" viewBox="0 0 20 20">
      <path d="M10.02 15.57c-.37 0-.66.3-.66.66 0 .37.29.66.66.66a.66.66 0 1 0 0-1.32zm0-11.14a.666.666 0 0 0 0-1.33c-.37 0-.66.3-.66.66 0 .37.29.67.66.67zM10 0C4.48 0 0 4.48 0 10s4.48 10 10 10 10-4.48 10-10S15.52 0 10 0zm0 17.58c-4.19 0-7.58-3.39-7.58-7.58 0-4.19 3.39-7.58 7.58-7.58 4.19 0 7.58 3.39 7.58 7.58 0 4.19-3.39 7.58-7.58 7.58zM3.78 9.34a.66.66 0 1 0 0 1.32c.37 0 .67-.3.67-.66 0-.37-.3-.66-.67-.66zm12.47 0a.66.66 0 1 0 .66.66c0-.37-.29-.66-.66-.66zM13.09 6.3L9.93 9.46 8.17 7.69a.767.767 0 0 0-1.07 0c-.29.3-.29.77 0 1.07l2.36 2.35s.3.3.67.12c.42-.2 4.03-3.87 4.03-3.87.29-.29.29-.77 0-1.06-.29-.3-.77-.3-1.07 0z" fill="#E11737"/>
    </symbol></svg>