<svg xmlns="http://www.w3.org/2000/svg" width="20" height="20" viewBox="0 0 20 20"><path d="M10.02 15.57c-.37 0-.66.3-.66.66 0 .37.29.66.66.66a.66.66 0 1 0 0-1.32zm0-11.14a.666.666 0 0 0 0-1.33c-.37 0-.66.3-.66.66 0 .37.29.67.66.67zM10 0C4.48 0 0 4.48 0 10s4.48 10 10 10 10-4.48 10-10S15.52 0 10 0zm0 17.58c-4.19 0-7.58-3.39-7.58-7.58 0-4.19 3.39-7.58 7.58-7.58 4.19 0 7.58 3.39 7.58 7.58 0 4.19-3.39 7.58-7.58 7.58zM3.78 9.34a.66.66 0 1 0 0 1.32c.37 0 .67-.3.67-.66 0-.37-.3-.66-.67-.66zm12.47 0a.66.66 0 1 0 .66.66c0-.37-.29-.66-.66-.66zM13.09 6.3L9.93 9.46 8.17 7.69a.767.767 0 0 0-1.07 0c-.29.3-.29.77 0 1.07l2.36 2.35s.3.3.67.12c.42-.2 4.03-3.87 4.03-3.87.29-.29.29-.77 0-1.06-.29-.3-.77-.3-1.07 0z" fill="#E11737"/></svg>